# xmcd
#
# Track frame offsets:
#	150
#	15069
#	38321
#	59539
#	72139
#	92020
#	113718
#	128464
#	143832
#	170069
#	181376
#	201841
#	223726
#	241697
#	251680
#	268585
#	287046
#	303263
#	316976
#
# Disc length: 4480
#
# Revision: 1
# Processed by: cddbd v1.5.1PL0 Copyright (c) Steve Scherf et al.
# Submitted via: CDex 1.50
# Normalized: r0:TDELIM( - )
#
DISCID=02117e13
DTITLE=diverse artists - Hessen Jazz Idstein 1998
DYEAR=1998
DGENRE=Jazz
TTITLE0=Bow-Tie Bigband - All of me
TTITLE1=Ca-roh - Hideaway
TTITLE2=Jazzpirant - Waltz for Joy
TTITLE3=Jungle Orchestra - Forty Second Street
TTITLE4=Bouncin´ Basement - Chicago
TTITLE5=False Fingering - Zwielicht
TTITLE6=Spread Valley Stompers - Don´t get around much anymore
TTITLE7=Magic Sound Bigband - I get a kick out of you
TTITLE8=Petra Straue and the Moonmen - Voices around my house
TTITLE9=Noisy Wednesday - A foggy day
TTITLE10=Ulli Jünemann-Christian Kappe-Qunitett - Tango al dente
TTITLE11=Moment´s Notice - Tales of Wales
TTITLE12=Monkey Party - Women
TTITLE13=Oscar Jazzig Swingtett - Take the A train
TTITLE14=Schampus All Stars - Sam sack
TTITLE15=Tree-Oh - Dear Silvia II
TTITLE16=Caravan Bigband - Magic flea
TTITLE17=Jumping Daddies and Wally Dové - Goody Goody
TTITLE18=The Jackson Singers - Soon and very soon
EXTD=YEAR: 1998
EXTT0=
EXTT1=
EXTT2=
EXTT3=
EXTT4=
EXTT5=
EXTT6=
EXTT7=
EXTT8=
EXTT9=
EXTT10=
EXTT11=
EXTT12=
EXTT13=
EXTT14=
EXTT15=
EXTT16=
EXTT17=
EXTT18=
PLAYORDER=
